<svg xmlns="http://www.w3.org/2000/svg" width="666" height="375" viewBox="0 0 666 375">
<g>
<path d="M 347.47 218.47 C339.44,220.91 325.74,220.46 318.50,217.52 C310.94,214.45 304.05,207.31 300.89,199.26 C298.87,194.13 298.61,191.71 298.57,177.00 C298.52,162.15 298.74,159.94 300.75,154.95 C304.86,144.79 311.38,138.43 320.41,135.80 C327.03,133.87 342.54,134.23 349.50,136.48 C365.07,141.52 372.74,159.72 370.11,185.37 C368.21,203.92 361.08,214.34 347.47,218.47 ZM 562.30 217.65 C557.82,219.52 524.78,219.40 520.50,217.51 C513.20,214.27 508.99,205.74 509.01,194.22 C509.02,187.63 512.11,178.29 514.83,176.60 C515.49,176.20 514.78,173.89 512.94,170.38 C510.60,165.93 510.00,163.53 510.00,158.55 C510.00,151.32 511.29,146.82 514.69,142.25 C519.32,136.01 521.41,135.50 542.16,135.50 L 560.82 135.50 L 564.66 138.56 C570.63,143.33 572.50,147.97 572.49,158.00 C572.48,165.38 572.12,167.14 569.76,171.34 C567.34,175.65 567.20,176.35 568.54,177.69 C573.31,182.45 575.13,192.96 572.97,203.15 C571.49,210.11 567.56,215.45 562.30,217.65 ZM 240.07 197.00 L 239.50 218.50 L 232.46 218.79 C228.58,218.95 225.09,218.76 224.71,218.37 C224.32,217.98 224.00,208.54 224.00,197.38 L 224.00 177.10 L 271.18 176.50 L 273.59 173.69 C276.98,169.75 276.96,162.87 273.55,159.45 L 271.09 157.00 L 248.05 157.00 C233.88,157.00 225.00,156.63 225.00,156.03 C225.00,155.50 227.13,150.50 229.73,144.92 L 234.46 134.78 L 253.98 135.24 C274.48,135.73 277.27,136.28 283.28,141.01 C290.83,146.95 294.12,163.26 290.48,176.71 C289.04,182.04 287.78,184.27 284.20,187.85 C279.80,192.26 279.76,192.36 281.38,194.91 C288.17,205.59 294.16,217.24 293.30,218.10 C292.76,218.64 288.33,218.95 283.44,218.79 L 274.55 218.50 L 263.55 197.00 ZM 499.56 209.43 L 495.12 219.00 L 471.72 219.00 C458.86,219.00 448.03,218.70 447.67,218.33 C447.30,217.97 447.00,199.05 447.00,176.29 L 447.00 134.91 L 474.92 135.21 C490.27,135.37 503.12,135.78 503.47,136.13 C503.82,136.48 502.10,141.21 499.67,146.63 L 495.24 156.50 L 478.87 157.00 L 462.50 157.50 L 462.59 161.75 C462.63,164.09 462.88,166.21 463.14,166.47 C463.39,166.72 472.01,166.98 482.30,167.04 C483.69,167.05 484.98,167.06 486.19,167.06 C495.62,167.09 499.65,167.11 500.52,168.78 C501.17,170.01 500.09,172.17 498.19,175.92 C497.87,176.56 497.52,177.26 497.15,178.00 L 493.43 185.50 L 477.96 186.00 L 462.50 186.50 L 462.18 189.89 C462.00,191.75 462.12,194.34 462.45,195.64 L 463.04 198.00 L 483.52 198.00 C495.47,198.00 504.00,198.39 504.00,198.93 C504.00,199.44 502.00,204.17 499.56,209.43 ZM 433.85 217.66 C431.08,220.61 427.93,220.64 425.31,217.75 C424.19,216.51 417.28,206.50 409.95,195.50 C402.63,184.50 395.94,174.68 395.10,173.68 C393.62,171.93 393.55,171.93 392.86,173.68 C392.46,174.68 392.11,185.29 392.07,197.25 L 392.00 219.00 L 379.09 219.00 L 378.47 215.72 C378.14,213.91 378.00,196.70 378.18,177.47 C378.46,146.35 378.69,142.14 380.26,139.28 C381.23,137.51 382.91,135.59 383.99,135.01 C388.73,132.47 390.49,134.29 406.76,158.62 C415.36,171.48 422.76,182.00 423.20,182.00 C423.64,182.00 424.00,171.69 424.00,159.09 L 424.00 136.18 L 427.75 135.64 C429.81,135.35 432.62,135.27 434.00,135.47 C435.38,135.67 436.84,135.87 437.25,135.92 C438.38,136.04 438.16,207.95 437.02,211.92 C436.49,213.79 435.06,216.37 433.85,217.66 ZM 169.23 202.75 L 168.95 219.00 L 154.00 219.00 L 154.00 135.00 L 169.00 135.00 L 169.00 148.43 C169.00,159.30 169.30,162.16 170.57,163.43 C171.83,164.69 174.57,165.00 184.32,164.98 C191.02,164.98 197.05,164.62 197.72,164.19 C198.56,163.66 199.03,159.09 199.22,149.46 L 199.50 135.50 L 214.50 135.50 L 214.50 218.50 L 199.50 218.50 L 199.23 202.22 L 198.95 185.95 L 184.23 186.22 L 169.50 186.50 ZM 121.03 157.00 L 120.50 218.50 L 106.00 219.09 L 106.00 157.00 L 95.06 157.00 C89.04,157.00 83.90,156.64 83.63,156.20 C83.35,155.76 85.19,150.81 87.70,145.20 L 92.26 135.00 L 120.13 135.00 C143.11,135.00 148.00,135.24 148.00,136.38 C148.00,137.13 145.99,142.08 143.53,147.38 L 139.07 157.00 ZM 325.11 197.98 C330.84,199.19 343.32,198.40 346.78,196.61 C353.16,193.31 355.19,188.59 355.20,177.00 C355.22,166.55 353.17,160.70 348.63,158.21 C346.19,156.88 342.97,156.50 333.96,156.50 C320.38,156.50 317.98,157.54 314.78,164.77 C313.07,168.63 312.82,170.80 313.22,178.44 C313.90,191.44 316.82,196.23 325.11,197.98 ZM 525.47 194.95 L 527.05 198.00 L 540.83 198.00 C555.99,198.00 557.58,197.50 558.58,192.41 C559.70,186.72 557.80,186.00 541.68,186.02 C533.88,186.02 527.00,186.36 526.38,186.77 C524.27,188.16 523.86,191.84 525.47,194.95 ZM 526.20 166.80 C527.02,167.62 531.87,168.00 541.50,168.00 C556.91,168.00 558.00,167.64 558.00,162.50 C558.00,157.38 556.89,157.00 541.88,157.00 C534.34,157.00 527.45,157.27 526.58,157.61 C524.67,158.34 524.40,165.00 526.20,166.80 Z" fill="rgb(153,120,44)"/>
<path d="M 0.00 187.50 L 0.00 0.00 L 333.00 0.00 L 666.00 0.00 L 666.00 187.50 L 666.00 375.00 L 333.00 375.00 L 0.00 375.00 L 0.00 187.50 ZM 347.47 218.47 C361.08,214.34 368.21,203.92 370.11,185.37 C372.74,159.72 365.07,141.52 349.50,136.48 C342.54,134.23 327.03,133.87 320.41,135.80 C311.38,138.43 304.86,144.79 300.75,154.95 C298.74,159.94 298.52,162.15 298.57,177.00 C298.61,191.71 298.87,194.13 300.89,199.26 C304.05,207.31 310.94,214.45 318.50,217.52 C325.74,220.46 339.44,220.91 347.47,218.47 ZM 433.85 217.66 C435.06,216.37 436.49,213.79 437.02,211.92 C438.16,207.95 438.38,136.04 437.25,135.92 C436.84,135.87 435.38,135.67 434.00,135.47 C432.62,135.27 429.81,135.35 427.75,135.64 L 424.00 136.18 L 424.00 159.09 C424.00,171.69 423.64,182.00 423.20,182.00 C422.76,182.00 415.36,171.48 406.76,158.62 C390.49,134.29 388.73,132.47 383.99,135.01 C382.91,135.59 381.23,137.51 380.26,139.28 C378.69,142.14 378.46,146.35 378.18,177.47 C378.00,196.70 378.14,213.91 378.47,215.72 L 379.09 219.00 L 385.55 219.00 L 392.00 219.00 L 392.07 197.25 C392.11,185.29 392.46,174.68 392.86,173.68 C393.55,171.93 393.62,171.93 395.10,173.68 C395.94,174.68 402.63,184.50 409.95,195.50 C417.28,206.50 424.19,216.51 425.31,217.75 C427.93,220.64 431.08,220.61 433.85,217.66 ZM 120.76 187.75 L 121.03 157.00 L 130.05 157.00 L 139.07 157.00 L 143.53 147.38 C145.99,142.08 148.00,137.13 148.00,136.38 C148.00,135.24 143.11,135.00 120.13,135.00 L 92.26 135.00 L 87.70 145.20 C85.19,150.81 83.35,155.76 83.63,156.20 C83.90,156.64 89.04,157.00 95.06,157.00 L 106.00 157.00 L 106.00 188.04 L 106.00 219.09 L 113.25 218.79 L 120.50 218.50 L 120.76 187.75 ZM 169.23 202.75 L 169.50 186.50 L 184.23 186.22 L 198.95 185.95 L 199.23 202.22 L 199.50 218.50 L 207.00 218.50 L 214.50 218.50 L 214.50 177.00 L 214.50 135.50 L 207.00 135.50 L 199.50 135.50 L 199.22 149.46 C199.03,159.09 198.56,163.66 197.72,164.19 C197.05,164.62 191.02,164.98 184.32,164.98 C174.57,165.00 171.83,164.69 170.57,163.43 C169.30,162.16 169.00,159.30 169.00,148.43 L 169.00 135.00 L 161.50 135.00 L 154.00 135.00 L 154.00 177.00 L 154.00 219.00 L 161.48 219.00 L 168.95 219.00 L 169.23 202.75 ZM 239.78 207.75 L 240.07 197.00 L 251.81 197.00 L 263.55 197.00 L 269.05 207.75 L 274.55 218.50 L 283.44 218.79 C288.33,218.95 292.76,218.64 293.30,218.10 C294.16,217.24 288.17,205.59 281.38,194.91 C279.76,192.36 279.80,192.26 284.20,187.85 C287.78,184.27 289.04,182.04 290.48,176.71 C294.12,163.26 290.83,146.95 283.28,141.01 C277.27,136.28 274.48,135.73 253.98,135.24 L 234.46 134.78 L 229.73 144.92 C227.13,150.50 225.00,155.50 225.00,156.03 C225.00,156.63 233.88,157.00 248.05,157.00 L 271.09 157.00 L 273.55 159.45 C276.96,162.87 276.98,169.75 273.59,173.69 L 271.18 176.50 L 247.59 176.80 L 224.00 177.10 L 224.00 197.38 C224.00,208.54 224.32,217.98 224.71,218.37 C225.09,218.76 228.58,218.95 232.46,218.79 L 239.50 218.50 L 239.78 207.75 ZM 499.56 209.43 C502.00,204.17 504.00,199.44 504.00,198.93 C504.00,198.39 495.47,198.00 483.52,198.00 L 463.04 198.00 L 462.45 195.64 C462.12,194.34 462.00,191.75 462.18,189.89 L 462.50 186.50 L 477.96 186.00 L 493.43 185.50 L 497.15 178.00 C502.91,166.37 504.00,167.17 482.30,167.04 C472.01,166.98 463.39,166.72 463.14,166.47 C462.88,166.21 462.63,164.09 462.59,161.75 L 462.50 157.50 L 478.87 157.00 L 495.24 156.50 L 499.67 146.63 C502.10,141.21 503.82,136.48 503.47,136.13 C503.12,135.78 490.27,135.37 474.92,135.21 L 447.00 134.91 L 447.00 176.29 C447.00,199.05 447.30,217.97 447.67,218.33 C448.03,218.70 458.86,219.00 471.72,219.00 L 495.12 219.00 L 499.56 209.43 ZM 562.30 217.65 C567.56,215.45 571.49,210.11 572.97,203.15 C575.13,192.96 573.31,182.45 568.54,177.69 C567.20,176.35 567.34,175.65 569.76,171.34 C572.12,167.14 572.48,165.38 572.49,158.00 C572.50,147.97 570.63,143.33 564.66,138.56 L 560.82 135.50 L 542.16 135.50 C521.41,135.50 519.32,136.01 514.69,142.25 C511.29,146.82 510.00,151.32 510.00,158.55 C510.00,163.53 510.60,165.93 512.94,170.38 C514.78,173.89 515.49,176.20 514.83,176.60 C512.11,178.29 509.02,187.63 509.01,194.22 C508.99,205.74 513.20,214.27 520.50,217.51 C524.78,219.40 557.82,219.52 562.30,217.65 ZM 325.11 197.98 C316.82,196.23 313.90,191.44 313.22,178.44 C312.82,170.80 313.07,168.63 314.78,164.77 C317.98,157.54 320.38,156.50 333.96,156.50 C342.97,156.50 346.19,156.88 348.63,158.21 C353.17,160.70 355.22,166.55 355.20,177.00 C355.19,188.59 353.16,193.31 346.78,196.61 C343.32,198.40 330.84,199.19 325.11,197.98 ZM 525.47 194.95 C523.86,191.84 524.27,188.16 526.38,186.77 C527.00,186.36 533.88,186.02 541.68,186.02 C557.80,186.00 559.70,186.72 558.58,192.41 C557.58,197.50 555.99,198.00 540.83,198.00 L 527.05 198.00 L 525.47 194.95 ZM 526.20 166.80 C524.40,165.00 524.67,158.34 526.58,157.61 C527.45,157.27 534.34,157.00 541.88,157.00 C556.89,157.00 558.00,157.38 558.00,162.50 C558.00,167.64 556.91,168.00 541.50,168.00 C531.87,168.00 527.02,167.62 526.20,166.80 Z" fill="rgb(254,254,254)"/>
</g>
</svg>